<mxfile host="app.diagrams.net" modified="2023-06-19T19:51:20.831Z" agent="Mozilla/5.0 (Windows NT 10.0; Win64; x64) AppleWebKit/537.36 (KHTML, like Gecko) Chrome/114.0.0.0 Safari/537.36" etag="nKAPNIdNR-6ObNosl0cS" version="21.4.0" type="github">
  <diagram name="Página-1" id="_FN0Ys9WY54TffG4kuFK">
    <mxGraphModel dx="1434" dy="756" grid="1" gridSize="10" guides="1" tooltips="1" connect="1" arrows="1" fold="1" page="1" pageScale="1" pageWidth="827" pageHeight="1169" math="0" shadow="0">
      <root>
        <mxCell id="0" />
        <mxCell id="1" parent="0" />
        <mxCell id="UhbLNOEHHMik6Ta-FkYB-44" value="" style="rhombus;whiteSpace=wrap;html=1;" vertex="1" parent="1">
          <mxGeometry x="117" y="370" width="80" height="80" as="geometry" />
        </mxCell>
        <mxCell id="UhbLNOEHHMik6Ta-FkYB-15" value="soldado" style="rounded=0;whiteSpace=wrap;html=1;" vertex="1" parent="1">
          <mxGeometry x="97" y="270" width="120" height="60" as="geometry" />
        </mxCell>
        <mxCell id="UhbLNOEHHMik6Ta-FkYB-16" value="&lt;u&gt;codigo&lt;/u&gt;" style="ellipse;whiteSpace=wrap;html=1;" vertex="1" parent="1">
          <mxGeometry x="122" y="200" width="70" height="40" as="geometry" />
        </mxCell>
        <mxCell id="UhbLNOEHHMik6Ta-FkYB-17" value="nombre" style="ellipse;whiteSpace=wrap;html=1;" vertex="1" parent="1">
          <mxGeometry x="40" y="200" width="70" height="40" as="geometry" />
        </mxCell>
        <mxCell id="UhbLNOEHHMik6Ta-FkYB-18" value="graduacion" style="ellipse;whiteSpace=wrap;html=1;" vertex="1" parent="1">
          <mxGeometry x="204" y="200" width="70" height="40" as="geometry" />
        </mxCell>
        <mxCell id="UhbLNOEHHMik6Ta-FkYB-19" value="cuartel" style="rounded=0;whiteSpace=wrap;html=1;" vertex="1" parent="1">
          <mxGeometry x="607" y="620" width="120" height="60" as="geometry" />
        </mxCell>
        <mxCell id="UhbLNOEHHMik6Ta-FkYB-21" value="nombre" style="ellipse;whiteSpace=wrap;html=1;" vertex="1" parent="1">
          <mxGeometry x="630" y="570" width="70" height="40" as="geometry" />
        </mxCell>
        <mxCell id="UhbLNOEHHMik6Ta-FkYB-22" value="&lt;u&gt;codigo&lt;/u&gt;" style="ellipse;whiteSpace=wrap;html=1;" vertex="1" parent="1">
          <mxGeometry x="550" y="570" width="70" height="40" as="geometry" />
        </mxCell>
        <mxCell id="UhbLNOEHHMik6Ta-FkYB-23" value="ubicacion" style="ellipse;whiteSpace=wrap;html=1;" vertex="1" parent="1">
          <mxGeometry x="714" y="570" width="70" height="40" as="geometry" />
        </mxCell>
        <mxCell id="UhbLNOEHHMik6Ta-FkYB-25" value="cuerpos_de_ejercito" style="rounded=0;whiteSpace=wrap;html=1;" vertex="1" parent="1">
          <mxGeometry x="520" y="270" width="120" height="60" as="geometry" />
        </mxCell>
        <mxCell id="UhbLNOEHHMik6Ta-FkYB-26" value="denominacion" style="ellipse;whiteSpace=wrap;html=1;" vertex="1" parent="1">
          <mxGeometry x="575" y="210" width="90" height="40" as="geometry" />
        </mxCell>
        <mxCell id="UhbLNOEHHMik6Ta-FkYB-27" value="&lt;u&gt;codigo&lt;/u&gt;" style="ellipse;whiteSpace=wrap;html=1;" vertex="1" parent="1">
          <mxGeometry x="495" y="210" width="70" height="40" as="geometry" />
        </mxCell>
        <mxCell id="UhbLNOEHHMik6Ta-FkYB-29" value="compañia" style="rounded=0;whiteSpace=wrap;html=1;" vertex="1" parent="1">
          <mxGeometry x="92" y="480" width="120" height="60" as="geometry" />
        </mxCell>
        <mxCell id="UhbLNOEHHMik6Ta-FkYB-30" value="actividad" style="ellipse;whiteSpace=wrap;html=1;" vertex="1" parent="1">
          <mxGeometry x="149" y="565" width="90" height="40" as="geometry" />
        </mxCell>
        <mxCell id="UhbLNOEHHMik6Ta-FkYB-31" value="numero" style="ellipse;whiteSpace=wrap;html=1;" vertex="1" parent="1">
          <mxGeometry x="70" y="565" width="70" height="40" as="geometry" />
        </mxCell>
        <mxCell id="UhbLNOEHHMik6Ta-FkYB-32" value="servicios" style="rounded=0;whiteSpace=wrap;html=1;" vertex="1" parent="1">
          <mxGeometry x="137" y="740" width="120" height="60" as="geometry" />
        </mxCell>
        <mxCell id="UhbLNOEHHMik6Ta-FkYB-33" value="nombre" style="ellipse;whiteSpace=wrap;html=1;" vertex="1" parent="1">
          <mxGeometry x="197" y="690" width="93" height="40" as="geometry" />
        </mxCell>
        <mxCell id="UhbLNOEHHMik6Ta-FkYB-34" value="&lt;u&gt;codigo&lt;/u&gt;" style="ellipse;whiteSpace=wrap;html=1;" vertex="1" parent="1">
          <mxGeometry x="117" y="690" width="70" height="40" as="geometry" />
        </mxCell>
        <mxCell id="UhbLNOEHHMik6Ta-FkYB-35" value="apellido" style="ellipse;whiteSpace=wrap;html=1;" vertex="1" parent="1">
          <mxGeometry x="79" y="150" width="70" height="40" as="geometry" />
        </mxCell>
        <mxCell id="UhbLNOEHHMik6Ta-FkYB-36" value="" style="rhombus;whiteSpace=wrap;html=1;" vertex="1" parent="1">
          <mxGeometry x="334" y="260" width="80" height="80" as="geometry" />
        </mxCell>
        <mxCell id="UhbLNOEHHMik6Ta-FkYB-37" value="" style="endArrow=none;html=1;rounded=0;exitX=1;exitY=0.5;exitDx=0;exitDy=0;entryX=0;entryY=0.5;entryDx=0;entryDy=0;" edge="1" parent="1" source="UhbLNOEHHMik6Ta-FkYB-15" target="UhbLNOEHHMik6Ta-FkYB-36">
          <mxGeometry width="50" height="50" relative="1" as="geometry">
            <mxPoint x="550" y="410" as="sourcePoint" />
            <mxPoint x="600" y="360" as="targetPoint" />
          </mxGeometry>
        </mxCell>
        <mxCell id="UhbLNOEHHMik6Ta-FkYB-38" value="" style="endArrow=none;html=1;rounded=0;exitX=1;exitY=0.5;exitDx=0;exitDy=0;entryX=0;entryY=0.5;entryDx=0;entryDy=0;" edge="1" parent="1" source="UhbLNOEHHMik6Ta-FkYB-36" target="UhbLNOEHHMik6Ta-FkYB-25">
          <mxGeometry width="50" height="50" relative="1" as="geometry">
            <mxPoint x="550" y="410" as="sourcePoint" />
            <mxPoint x="600" y="360" as="targetPoint" />
          </mxGeometry>
        </mxCell>
        <mxCell id="UhbLNOEHHMik6Ta-FkYB-39" value="(1,N)" style="text;strokeColor=none;align=center;fillColor=none;html=1;verticalAlign=middle;whiteSpace=wrap;rounded=0;" vertex="1" parent="1">
          <mxGeometry x="204" y="330" width="60" height="30" as="geometry" />
        </mxCell>
        <mxCell id="UhbLNOEHHMik6Ta-FkYB-40" value="(1,1)" style="text;strokeColor=none;align=center;fillColor=none;html=1;verticalAlign=middle;whiteSpace=wrap;rounded=0;" vertex="1" parent="1">
          <mxGeometry x="470" y="320" width="60" height="30" as="geometry" />
        </mxCell>
        <mxCell id="UhbLNOEHHMik6Ta-FkYB-42" value="(N,1)&lt;br&gt;pertenece" style="text;strokeColor=none;align=center;fillColor=none;html=1;verticalAlign=middle;whiteSpace=wrap;rounded=0;" vertex="1" parent="1">
          <mxGeometry x="127" y="395" width="60" height="30" as="geometry" />
        </mxCell>
        <mxCell id="UhbLNOEHHMik6Ta-FkYB-45" value="" style="endArrow=none;html=1;rounded=0;exitX=0.5;exitY=0;exitDx=0;exitDy=0;entryX=0.5;entryY=1;entryDx=0;entryDy=0;" edge="1" parent="1" source="UhbLNOEHHMik6Ta-FkYB-29" target="UhbLNOEHHMik6Ta-FkYB-44">
          <mxGeometry width="50" height="50" relative="1" as="geometry">
            <mxPoint x="93.5" y="470" as="sourcePoint" />
            <mxPoint x="210.5" y="470" as="targetPoint" />
          </mxGeometry>
        </mxCell>
        <mxCell id="UhbLNOEHHMik6Ta-FkYB-46" value="" style="endArrow=none;html=1;rounded=0;exitX=0.5;exitY=0;exitDx=0;exitDy=0;entryX=0.5;entryY=1;entryDx=0;entryDy=0;" edge="1" parent="1" source="UhbLNOEHHMik6Ta-FkYB-44" target="UhbLNOEHHMik6Ta-FkYB-15">
          <mxGeometry width="50" height="50" relative="1" as="geometry">
            <mxPoint x="60" y="350" as="sourcePoint" />
            <mxPoint x="177" y="350" as="targetPoint" />
          </mxGeometry>
        </mxCell>
        <mxCell id="UhbLNOEHHMik6Ta-FkYB-47" value="(1,N)" style="text;strokeColor=none;align=center;fillColor=none;html=1;verticalAlign=middle;whiteSpace=wrap;rounded=0;" vertex="1" parent="1">
          <mxGeometry x="89" y="340" width="60" height="30" as="geometry" />
        </mxCell>
        <mxCell id="UhbLNOEHHMik6Ta-FkYB-49" value="(1,1)" style="text;strokeColor=none;align=center;fillColor=none;html=1;verticalAlign=middle;whiteSpace=wrap;rounded=0;" vertex="1" parent="1">
          <mxGeometry x="80" y="440" width="60" height="30" as="geometry" />
        </mxCell>
        <mxCell id="UhbLNOEHHMik6Ta-FkYB-50" value="(N,1)&lt;br&gt;pertenece" style="text;strokeColor=none;align=center;fillColor=none;html=1;verticalAlign=middle;whiteSpace=wrap;rounded=0;" vertex="1" parent="1">
          <mxGeometry x="344" y="285" width="60" height="30" as="geometry" />
        </mxCell>
      </root>
    </mxGraphModel>
  </diagram>
</mxfile>
